#N canvas 380 57 525 524 12;
#X obj 9 7 cnv 19 281 455 empty empty empty 20 12 0 12 #e0e0e0 #404040 0;
#X obj 111 346 s seq_osc1;
#X obj 46 448 s seq_osc2;
#X obj 46 424 + 0.5;
#X obj 152 277 s sync_filter_Q;
#X obj 152 253 / 10000;
#X obj 46 105 tgl 19 0 empty empty empty 0 -10 0 12 #fcfcfc #000000 #000000 0 1;
#X obj 46 130 route 1;
#X msg 46 154 144;
#X msg 92 154 44;
#X obj 46 80 metro 250;
#X obj 46 42 tgl 32 0 empty empty empty 0 -10 0 12 #ff8300 #000000 #000000 0 1;
#X floatatom 46 205 5 0 0 0 - - - 0;
#X text 84 50 <----- sequencer 0N/OFF;
#X text 271 277 <----- to Filter Resonance;
#X text 197 346 <----- to OSC1 frequency;
#X text 129 449 <----- to OSC2 frequency;
#X text 94 424 <----- dephase OSC1 frequency by 0.5 Hz;
#X connect 3 0 2 0;
#X connect 5 0 4 0;
#X connect 6 0 7 0;
#X connect 7 0 8 0;
#X connect 7 1 9 0;
#X connect 8 0 12 0;
#X connect 9 0 12 0;
#X connect 10 0 6 0;
#X connect 11 0 10 0;
#X connect 12 0 5 0;
#X connect 12 0 3 0;
#X connect 12 0 1 0;
